# xmcd CD database file
#
# Track frame offsets:
#	150
#	21938
#	40230
#	62205
#	86930
#	103555
#	126257
#	151274
#	170970
#	196728
#
# Disc length: 2916 seconds
#
# Revision: 0
# Processed by: cddbd v1.5.1PL0 Copyright (c) Steve Scherf et al.
# Submitted via: CDex 1.51
#
DISCID=880b620a
DTITLE=小山卓治 - 種
DYEAR=2003
DGENRE=Rock
TTITLE0=吠えろ
TTITLE1=ジオラマ
TTITLE2=今夜のアリバイ
TTITLE3=ある夜の電話
TTITLE4=夕陽に泣きたい
TTITLE5=ユリエ
TTITLE6=汚れたバスケットシューズ
TTITLE7=Soulmate
TTITLE8=種の歌
TTITLE9=最初の奇跡
EXTD=YEAR: 2003
EXTT0=
EXTT1=
EXTT2=
EXTT3=
EXTT4=
EXTT5=
EXTT6=
EXTT7=
EXTT8=
EXTT9=
PLAYORDER=
